<svg width="25" height="19" viewBox="0 0 25 19" fill="none" xmlns="http://www.w3.org/2000/svg">
<path d="M0.732422 8.79388L8.93555 0.590758C9.66797 -0.141664 10.9375 0.371032 10.9375 1.42084V6.10834H17.5781C18.2275 6.10834 18.75 6.6308 18.75 7.28021V11.9677C18.75 12.6171 18.2275 13.1396 17.5781 13.1396H10.9375V17.8271C10.9375 18.872 9.67285 19.3896 8.93555 18.6572L0.732422 10.454C0.27832 9.99506 0.27832 9.25287 0.732422 8.79388ZM15.625 0.834899V2.78802C15.625 3.11029 15.8887 3.37396 16.2109 3.37396H20.3125C21.1768 3.37396 21.875 4.0722 21.875 4.93646V14.3115C21.875 15.1757 21.1768 15.874 20.3125 15.874H16.2109C15.8887 15.874 15.625 16.1376 15.625 16.4599V18.413C15.625 18.7353 15.8887 18.999 16.2109 18.999H20.3125C22.9004 18.999 25 16.8994 25 14.3115V4.93646C25 2.34857 22.9004 0.248961 20.3125 0.248961H16.2109C15.8887 0.248961 15.625 0.512633 15.625 0.834899Z" fill="#10107B"/>
</svg>
